HIERARCHY
ROOT hip
{
OFFSET 0.08 99.02 3.63
CHANNELS 6 Xposition Yposition Zposition Zrotation Xrotation Yrotation
JOINT abdomen
{
OFFSET -0.17 7.23 0
CHANNELS 6 Xposition Yposition Zposition Zrotation Xrotation Yrotation
JOINT chest
{
OFFSET -0 16.55 -0
CHANNELS 6 Xposition Yposition Zposition Zrotation Xrotation Yrotation
JOINT neck
{
OFFSET 0 34.21 -0
CHANNELS 6 Xposition Yposition Zposition Zrotation Xrotation Yrotation
JOINT head
{
OFFSET 0 6.29 0
CHANNELS 6 Xposition Yposition Zposition Zrotation Xrotation Yrotation
End Site
{
OFFSET 0 0 0
}
}
}
JOINT lCollar
{
OFFSET 4.06 26.61 -1.12
CHANNELS 6 Xposition Yposition Zposition Zrotation Xrotation Yrotation
JOINT lShldr
{
OFFSET 14.17 0 0
CHANNELS 6 Xposition Yposition Zposition Zrotation Xrotation Yrotation
JOINT lForeArm
{
OFFSET 26.12 0 0
CHANNELS 6 Xposition Yposition Zposition Zrotation Xrotation Yrotation
JOINT lHand
{
OFFSET 27.71 0 0
CHANNELS 6 Xposition Yposition Zposition Zrotation Xrotation Yrotation
JOINT lThumb1
{
OFFSET 2.29 -0.46 1.83
CHANNELS 6 Xposition Yposition Zposition Zrotation Xrotation Yrotation
JOINT lThumb2
{
OFFSET 5.29 0 0
CHANNELS 6 Xposition Yposition Zposition Zrotation Xrotation Yrotation
JOINT lThumb3
{
OFFSET 3.01 0 0
CHANNELS 6 Xposition Yposition Zposition Zrotation Xrotation Yrotation
End Site
{
OFFSET 0 0 0
}
}
}
}
JOINT lIndex1
{
OFFSET 9.37 0.29 2.59
CHANNELS 6 Xposition Yposition Zposition Zrotation Xrotation Yrotation
JOINT lIndex2
{
OFFSET 4.34 0 0
CHANNELS 6 Xposition Yposition Zposition Zrotation Xrotation Yrotation
JOINT lIndex3
{
OFFSET 2.16 0 0
CHANNELS 6 Xposition Yposition Zposition Zrotation Xrotation Yrotation
End Site
{
OFFSET 0 0 0
}
}
}
}
JOINT lMid1
{
OFFSET 9.47 0.83 0.29
CHANNELS 6 Xposition Yposition Zposition Zrotation Xrotation Yrotation
JOINT lMid2
{
OFFSET 4.77 0 0
CHANNELS 6 Xposition Yposition Zposition Zrotation Xrotation Yrotation
JOINT lMid3
{
OFFSET 2.87 0 0
CHANNELS 6 Xposition Yposition Zposition Zrotation Xrotation Yrotation
End Site
{
OFFSET 0 0 0
}
}
}
}
JOINT lRing1
{
OFFSET 8.65 1.01 -1.70
CHANNELS 6 Xposition Yposition Zposition Zrotation Xrotation Yrotation
JOINT lRing2
{
OFFSET 4.54 0 0
CHANNELS 6 Xposition Yposition Zposition Zrotation Xrotation Yrotation
JOINT lRing3
{
OFFSET 2.50 0 0
CHANNELS 6 Xposition Yposition Zposition Zrotation Xrotation Yrotation
End Site
{
OFFSET 0 0 0
}
}
}
}
JOINT lPinky1
{
OFFSET 7.69 0.66 -3.90
CHANNELS 6 Xposition Yposition Zposition Zrotation Xrotation Yrotation
JOINT lPinky2
{
OFFSET 3.21 0 0
CHANNELS 6 Xposition Yposition Zposition Zrotation Xrotation Yrotation
JOINT lPinky3
{
OFFSET 1.92 0 0
CHANNELS 6 Xposition Yposition Zposition Zrotation Xrotation Yrotation
End Site
{
OFFSET 0 0 0
}
}
}
}
}
}
}
}
JOINT rCollar
{
OFFSET -4.06 26.61 -1.12
CHANNELS 6 Xposition Yposition Zposition Zrotation Xrotation Yrotation
JOINT rShldr
{
OFFSET -14.17 0 0
CHANNELS 6 Xposition Yposition Zposition Zrotation Xrotation Yrotation
JOINT rForeArm
{
OFFSET -26.12 0 0
CHANNELS 6 Xposition Yposition Zposition Zrotation Xrotation Yrotation
JOINT rHand
{
OFFSET -27.71 0 0
CHANNELS 6 Xposition Yposition Zposition Zrotation Xrotation Yrotation
JOINT rThumb1
{
OFFSET -2.29 -0.46 1.83
CHANNELS 6 Xposition Yposition Zposition Zrotation Xrotation Yrotation
JOINT rThumb2
{
OFFSET -5.29 0 0
CHANNELS 6 Xposition Yposition Zposition Zrotation Xrotation Yrotation
JOINT rThumb3
{
OFFSET -3.01 0 0
CHANNELS 6 Xposition Yposition Zposition Zrotation Xrotation Yrotation
End Site
{
OFFSET 0 0 0
}
}
}
}
JOINT rIndex1
{
OFFSET -9.37 0.29 2.59
CHANNELS 6 Xposition Yposition Zposition Zrotation Xrotation Yrotation
JOINT rIndex2
{
OFFSET -4.34 0 0
CHANNELS 6 Xposition Yposition Zposition Zrotation Xrotation Yrotation
JOINT rIndex3
{
OFFSET -2.16 0 0
CHANNELS 6 Xposition Yposition Zposition Zrotation Xrotation Yrotation
End Site
{
OFFSET 0 0 0
}
}
}
}
JOINT rMid1
{
OFFSET -9.47 0.83 0.29
CHANNELS 6 Xposition Yposition Zposition Zrotation Xrotation Yrotation
JOINT rMid2
{
OFFSET -4.77 0 0
CHANNELS 6 Xposition Yposition Zposition Zrotation Xrotation Yrotation
JOINT rMid3
{
OFFSET -2.87 0 0
CHANNELS 6 Xposition Yposition Zposition Zrotation Xrotation Yrotation
End Site
{
OFFSET 0 0 0
}
}
}
}
JOINT rRing1
{
OFFSET -8.65 1.01 -1.70
CHANNELS 6 Xposition Yposition Zposition Zrotation Xrotation Yrotation
JOINT rRing2
{
OFFSET -4.54 0 0
CHANNELS 6 Xposition Yposition Zposition Zrotation Xrotation Yrotation
JOINT rRing3
{
OFFSET -2.50 0 0
CHANNELS 6 Xposition Yposition Zposition Zrotation Xrotation Yrotation
End Site
{
OFFSET 0 0 0
}
}
}
}
JOINT rPinky1
{
OFFSET -7.69 0.66 -3.90
CHANNELS 6 Xposition Yposition Zposition Zrotation Xrotation Yrotation
JOINT rPinky2
{
OFFSET -3.21 0 0
CHANNELS 6 Xposition Yposition Zposition Zrotation Xrotation Yrotation
JOINT rPinky3
{
OFFSET -1.92 0 0
CHANNELS 6 Xposition Yposition Zposition Zrotation Xrotation Yrotation
End Site
{
OFFSET 0 0 0
}
}
}
}
}
}
}
}
}
}
JOINT lThigh
{
OFFSET 8.73 -0 0
CHANNELS 6 Xposition Yposition Zposition Zrotation Xrotation Yrotation
JOINT lShin
{
OFFSET 0 -46.66 0
CHANNELS 6 Xposition Yposition Zposition Zrotation Xrotation Yrotation
JOINT lFoot
{
OFFSET 0 -40.14 0
CHANNELS 6 Xposition Yposition Zposition Zrotation Xrotation Yrotation
JOINT lToes
{
OFFSET 0 -8.88 14.22
CHANNELS 6 Xposition Yposition Zposition Zrotation Xrotation Yrotation
End Site
{
OFFSET 0 0 0
}
}
}
}
}
JOINT rThigh
{
OFFSET -8.73 0 -0
CHANNELS 6 Xposition Yposition Zposition Zrotation Xrotation Yrotation
JOINT rShin
{
OFFSET 0 -46.66 0
CHANNELS 6 Xposition Yposition Zposition Zrotation Xrotation Yrotation
JOINT rFoot
{
OFFSET 0 -40.14 0
CHANNELS 6 Xposition Yposition Zposition Zrotation Xrotation Yrotation
JOINT rToes
{
OFFSET 0 -8.88 14.22
CHANNELS 6 Xposition Yposition Zposition Zrotation Xrotation Yrotation
End Site
{
OFFSET 0 0 0
}
}
}
}
}
}
MOTION
Frames: 9
Frame Time: 0.03
0.08 99.02 3.63 -1.24 -5.08 0.97 -0.17 7.23 0 -0.14 0.91 0.28 -0 16.55 -0 -0.11 7.79 0.59 0 34.21 -0 0.02 0.58 0.02 0 6.29 0 0.30 -6.12 -2.54 4.06 26.61 -1.12 -14.18 -5.00 1.18 14.17 0 0 -53.10 55.95 10.35 26.12 0 0 0 0 -47.79 27.71 0 0 -41.92 -28.40 35.79 2.29 -0.46 1.83 57.19 34.31 -81.43 5.29 0 0 0 0 0 3.01 0 0 0 0 0 9.37 0.29 2.59 24.22 -1.62 -3.34 4.34 0 0 0 0 0 2.16 0 0 0 0 0 9.47 0.83 0.29 16.96 14.27 7.03 4.77 0 0 0 0 0 2.87 0 0 -0 0 0 8.65 1.01 -1.70 23.79 3.43 14.82 4.54 0 0 0 0 0 2.50 0 0 0 0 0 7.69 0.66 -3.90 21.17 -7.01 16.30 3.21 0 0 0 0 0 1.92 0 0 0 0 0 -4.06 26.61 -1.12 16.70 -5.05 -0.96 -14.17 0 0 54.96 18.93 -1.81 -26.12 0 0 0 0 28.21 -27.71 0 0 24.38 -7.11 -47.01 -2.29 -0.46 1.83 -57.19 34.31 81.43 -5.29 0 0 0 0 0 -3.01 0 0 0 0 0 -9.37 0.29 2.59 -24.22 -1.62 3.34 -4.34 0 0 0 0 0 -2.16 0 0 -0 0 0 -9.47 0.83 0.29 -16.96 14.27 -7.03 -4.77 0 0 0 0 0 -2.87 0 0 0 0 0 -8.65 1.01 -1.70 -23.79 3.43 -14.82 -4.54 0 0 0 0 0 -2.50 0 0 -0 0 0 -7.69 0.66 -3.90 -21.17 -7.01 -16.30 -3.21 0 0 -0 0 0 -1.92 0 0 0 0 0 8.73 -0 0 9.50 7.49 -3.14 0 -46.66 0 0 4.03 0 0 -40.14 0 -1.84 6.35 -0.07 0 -8.88 14.22 0 0 0 -8.73 0 -0 -7.00 9.63 3.04 0 -46.66 0 0 3.54 0 0 -40.14 0 1.59 4.72 0.05 0 -8.88 14.22 0 0 0 
0.07 99.01 3.63 -1.26 -5.08 1.04 -0.17 7.23 0 -0.10 0.91 0.27 -0 16.55 -0 -0.09 7.81 0.60 0 34.21 -0 0.02 0.58 0.01 0 6.29 0 0.24 -6.07 -2.49 4.06 26.61 -1.12 -14.20 -5.00 1.18 14.17 0 0 -53.28 55.72 10.40 26.12 0 0 0 0 -47.90 27.71 0 0 -41.94 -28.33 35.86 2.29 -0.46 1.83 57.19 34.31 -81.43 5.29 0 0 0 0 0 3.01 0 0 0 0 0 9.37 0.29 2.59 24.22 -1.62 -3.34 4.34 0 0 0 0 0 2.16 0 0 0 0 0 9.47 0.83 0.29 16.96 14.27 7.03 4.77 0 0 0 0 0 2.87 0 0 -0 0 0 8.65 1.01 -1.70 23.79 3.43 14.82 4.54 0 0 0 0 0 2.50 0 0 0 0 0 7.69 0.66 -3.90 21.17 -7.01 16.30 3.21 0 0 0 0 0 1.92 0 0 0 0 0 -4.06 26.61 -1.12 16.73 -5.05 -0.95 -14.17 0 0 55.46 18.52 -2.05 -26.12 0 0 0 0 27.01 -27.71 0 0 24.22 -6.25 -45.07 -2.29 -0.46 1.83 -57.19 34.31 81.43 -5.29 0 0 0 0 0 -3.01 0 0 0 0 0 -9.37 0.29 2.59 -24.22 -1.62 3.34 -4.34 0 0 0 0 0 -2.16 0 0 -0 0 0 -9.47 0.83 0.29 -16.96 14.27 -7.03 -4.77 0 0 0 0 0 -2.87 0 0 0 0 0 -8.65 1.01 -1.70 -23.79 3.43 -14.82 -4.54 0 0 0 0 0 -2.50 0 0 -0 0 0 -7.69 0.66 -3.90 -21.17 -7.01 -16.30 -3.21 0 0 -0 0 0 -1.92 0 0 0 0 0 8.73 -0 0 9.54 7.47 -3.13 0 -46.66 0 0 4.03 0 0 -40.14 0 -1.84 6.09 -0.06 0 -8.88 14.22 0 0 0 -8.73 0 -0 -6.96 9.64 3.05 0 -46.66 0 0 3.53 0 0 -40.14 0 1.59 4.73 0.05 0 -8.88 14.22 0 0 0 
0.06 99.00 3.63 -1.28 -5.08 1.12 -0.17 7.23 0 -0.07 0.91 0.26 -0 16.55 -0 -0.06 7.83 0.60 0 34.21 -0 0.01 0.58 0.01 0 6.29 0 0.18 -6.03 -2.44 4.06 26.61 -1.12 -14.21 -5.00 1.18 14.17 0 0 -53.46 55.48 10.44 26.12 0 0 0 0 -48.02 27.71 0 0 -41.96 -28.25 35.93 2.29 -0.46 1.83 57.19 34.31 -81.43 5.29 0 0 0 0 0 3.01 0 0 0 0 0 9.37 0.29 2.59 24.22 -1.62 -3.34 4.34 0 0 0 0 0 2.16 0 0 0 0 0 9.47 0.83 0.29 16.96 14.27 7.03 4.77 0 0 0 0 0 2.87 0 0 -0 0 0 8.65 1.01 -1.70 23.79 3.43 14.82 4.54 0 0 0 0 0 2.50 0 0 0 0 0 7.69 0.66 -3.90 21.17 -7.01 16.30 3.21 0 0 0 0 0 1.92 0 0 0 0 0 -4.06 26.61 -1.12 16.76 -5.04 -0.94 -14.17 0 0 55.98 18.11 -2.28 -26.12 0 0 0 0 25.73 -27.71 0 0 24.05 -5.38 -43.11 -2.29 -0.46 1.83 -57.19 34.31 81.43 -5.29 0 0 0 0 0 -3.01 0 0 0 0 0 -9.37 0.29 2.59 -24.22 -1.62 3.34 -4.34 0 0 0 0 0 -2.16 0 0 -0 0 0 -9.47 0.83 0.29 -16.96 14.27 -7.03 -4.77 0 0 0 0 0 -2.87 0 0 0 0 0 -8.65 1.01 -1.70 -23.79 3.43 -14.82 -4.54 0 0 0 0 0 -2.50 0 0 -0 0 0 -7.69 0.66 -3.90 -21.17 -7.01 -16.30 -3.21 0 0 -0 0 0 -1.92 0 0 0 0 0 8.73 -0 0 9.58 7.46 -3.11 0 -46.66 0 0 4.02 0 0 -40.14 0 -1.84 5.51 -0.06 0 -8.88 14.22 0 0 0 -8.73 0 -0 -6.93 9.65 3.06 0 -46.66 0 0 3.51 0 0 -40.14 0 1.58 4.73 0.05 0 -8.88 14.22 0 0 0 
0.05 98.99 3.62 -1.30 -5.08 1.19 -0.18 7.23 0 -0.03 0.92 0.25 -0 16.55 -0 -0.04 7.86 0.61 0 34.21 -0 0.01 0.58 0.01 0 6.29 0 0.13 -5.98 -2.38 4.06 26.61 -1.12 -14.22 -5.00 1.17 14.17 0 0 -53.63 55.28 10.49 26.12 0 0 0 0 -48.09 27.71 0 0 -41.95 -28.15 35.88 2.29 -0.46 1.83 57.19 34.31 -81.43 5.29 0 0 0 0 0 3.01 0 0 0 0 0 9.37 0.29 2.59 24.22 -1.62 -3.34 4.34 0 0 0 0 0 2.16 0 0 0 0 0 9.47 0.83 0.29 16.96 14.27 7.03 4.77 0 0 0 0 0 2.87 0 0 -0 0 0 8.65 1.01 -1.70 23.79 3.43 14.82 4.54 0 0 0 0 0 2.50 0 0 0 0 0 7.69 0.66 -3.90 21.17 -7.01 16.30 3.21 0 0 0 0 0 1.92 0 0 0 0 0 -4.06 26.61 -1.12 16.79 -5.04 -0.93 -14.17 0 0 56.49 17.70 -2.52 -26.12 0 0 0 0 24.43 -27.71 0 0 23.87 -4.52 -41.14 -2.29 -0.46 1.83 -57.19 34.31 81.43 -5.29 0 0 0 0 0 -3.01 0 0 0 0 0 -9.37 0.29 2.59 -24.22 -1.62 3.34 -4.34 0 0 0 0 0 -2.16 0 0 -0 0 0 -9.47 0.83 0.29 -16.96 14.27 -7.03 -4.77 0 0 0 0 0 -2.87 0 0 0 0 0 -8.65 1.01 -1.70 -23.79 3.43 -14.82 -4.54 0 0 0 0 0 -2.50 0 0 -0 0 0 -7.69 0.66 -3.90 -21.17 -7.01 -16.30 -3.21 0 0 -0 0 0 -1.92 0 0 0 0 0 8.73 -0 0 9.62 7.45 -3.09 0 -46.66 0 0 4.01 0 0 -40.14 0 -1.84 5.09 -0.06 0 -8.88 14.22 0 0 0 -8.73 0 -0 -6.89 9.65 3.07 0 -46.66 0 0 3.49 0 0 -40.14 0 1.57 4.73 0.05 0 -8.88 14.22 0 0 0 
0.04 98.98 3.62 -1.32 -5.07 1.24 -0.18 7.23 0 -0 0.92 0.24 -0 16.55 -0 -0.01 7.88 0.61 0 34.21 -0 0.01 0.58 0.01 0 6.29 0 0.07 -5.94 -2.33 4.06 26.61 -1.12 -14.24 -5.00 1.16 14.17 0 0 -53.77 55.10 10.57 26.12 0 0 0 0 -48.10 27.71 0 0 -41.89 -27.96 35.53 2.29 -0.46 1.83 57.19 34.31 -81.43 5.29 0 0 0 0 0 3.01 0 0 0 0 0 9.37 0.29 2.59 24.22 -1.62 -3.34 4.34 0 0 0 0 0 2.16 0 0 0 0 0 9.47 0.83 0.29 16.96 14.27 7.03 4.77 0 0 0 0 0 2.87 0 0 -0 0 0 8.65 1.01 -1.70 23.79 3.43 14.82 4.54 0 0 0 0 0 2.50 0 0 0 0 0 7.69 0.66 -3.90 21.17 -7.01 16.30 3.21 0 0 0 0 0 1.92 0 0 0 0 0 -4.06 26.61 -1.12 16.81 -5.04 -0.92 -14.17 0 0 57.00 17.29 -2.74 -26.12 0 0 0 0 23.17 -27.71 0 0 23.64 -3.67 -39.19 -2.29 -0.46 1.83 -57.19 34.31 81.43 -5.29 0 0 0 0 0 -3.01 0 0 0 0 0 -9.37 0.29 2.59 -24.22 -1.62 3.34 -4.34 0 0 0 0 0 -2.16 0 0 -0 0 0 -9.47 0.83 0.29 -16.96 14.27 -7.03 -4.77 0 0 0 0 0 -2.87 0 0 0 0 0 -8.65 1.01 -1.70 -23.79 3.43 -14.82 -4.54 0 0 0 0 0 -2.50 0 0 -0 0 0 -7.69 0.66 -3.90 -21.17 -7.01 -16.30 -3.21 0 0 -0 0 0 -1.92 0 0 0 0 0 8.73 -0 0 9.66 7.43 -3.08 0 -46.66 0 0 4.01 0 0 -40.14 0 -1.84 5.29 -0.06 0 -8.88 14.22 0 0 0 -8.73 0 -0 -6.85 9.66 3.08 0 -46.66 0 0 3.48 0 0 -40.14 0 1.56 4.74 0.05 0 -8.88 14.22 0 0 0 
0.03 98.96 3.62 -1.35 -5.05 1.23 -0.18 7.23 0 0.03 0.92 0.23 -0 16.55 -0 0 7.91 0.62 0 34.21 -0 0.01 0.58 0.01 0 6.29 0 0.01 -5.90 -2.27 4.06 26.61 -1.12 -14.26 -5.00 1.15 14.17 0 0 -53.90 54.95 10.64 26.12 0 0 0 0 -48.07 27.71 0 0 -41.80 -27.73 35.06 2.29 -0.46 1.83 57.19 34.31 -81.43 5.29 0 0 0 0 0 3.01 0 0 0 0 0 9.37 0.29 2.59 24.22 -1.62 -3.34 4.34 0 0 0 0 0 2.16 0 0 0 0 0 9.47 0.83 0.29 16.96 14.27 7.03 4.77 0 0 0 0 0 2.87 0 0 -0 0 0 8.65 1.01 -1.70 23.79 3.43 14.82 4.54 0 0 0 0 0 2.50 0 0 0 0 0 7.69 0.66 -3.90 21.17 -7.01 16.30 3.21 0 0 0 0 0 1.92 0 0 0 0 0 -4.06 26.61 -1.12 16.84 -5.04 -0.91 -14.17 0 0 57.47 16.87 -2.95 -26.12 0 0 0 0 22.01 -27.71 0 0 23.34 -2.84 -37.26 -2.29 -0.46 1.83 -57.19 34.31 81.43 -5.29 0 0 0 0 0 -3.01 0 0 0 0 0 -9.37 0.29 2.59 -24.22 -1.62 3.34 -4.34 0 0 0 0 0 -2.16 0 0 -0 0 0 -9.47 0.83 0.29 -16.96 14.27 -7.03 -4.77 0 0 0 0 0 -2.87 0 0 0 0 0 -8.65 1.01 -1.70 -23.79 3.43 -14.82 -4.54 0 0 0 0 0 -2.50 0 0 -0 0 0 -7.69 0.66 -3.90 -21.17 -7.01 -16.30 -3.21 0 0 -0 0 0 -1.92 0 0 0 0 0 8.73 -0 0 9.69 7.41 -3.11 0 -46.66 0 0 4.02 0 0 -40.14 0 -1.83 6.60 -0.07 0 -8.88 14.22 0 0 0 -8.73 0 -0 -6.81 9.65 3.09 0 -46.66 0 0 3.46 0 0 -40.14 0 1.56 4.75 0.05 0 -8.88 14.22 0 0 0 
0.02 98.95 3.62 -1.37 -5.02 1.19 -0.19 7.23 0 0.06 0.92 0.22 -0 16.55 -0 0.03 7.93 0.62 0 34.21 -0 0.01 0.57 0.01 0 6.29 0 -0.04 -5.86 -2.21 4.06 26.61 -1.12 -14.26 -5.00 1.15 14.17 0 0 -53.98 54.83 10.67 26.12 0 0 0 0 -48.09 27.71 0 0 -41.72 -27.65 34.85 2.29 -0.46 1.83 57.19 34.31 -81.43 5.29 0 0 0 0 0 3.01 0 0 0 0 0 9.37 0.29 2.59 24.22 -1.62 -3.34 4.34 0 0 0 0 0 2.16 0 0 0 0 0 9.47 0.83 0.29 16.96 14.27 7.03 4.77 0 0 0 0 0 2.87 0 0 -0 0 0 8.65 1.01 -1.70 23.79 3.43 14.82 4.54 0 0 0 0 0 2.50 0 0 0 0 0 7.69 0.66 -3.90 21.17 -7.01 16.30 3.21 0 0 0 0 0 1.92 0 0 0 0 0 -4.06 26.61 -1.12 16.86 -5.04 -0.90 -14.17 0 0 57.89 16.45 -3.14 -26.12 0 0 0 0 21.00 -27.71 0 0 22.97 -2.06 -35.39 -2.29 -0.46 1.83 -57.19 34.31 81.43 -5.29 0 0 0 0 0 -3.01 0 0 0 0 0 -9.37 0.29 2.59 -24.22 -1.62 3.34 -4.34 0 0 0 0 0 -2.16 0 0 -0 0 0 -9.47 0.83 0.29 -16.96 14.27 -7.03 -4.77 0 0 0 0 0 -2.87 0 0 0 0 0 -8.65 1.01 -1.70 -23.79 3.43 -14.82 -4.54 0 0 0 0 0 -2.50 0 0 -0 0 0 -7.69 0.66 -3.90 -21.17 -7.01 -16.30 -3.21 0 0 -0 0 0 -1.92 0 0 0 0 0 8.73 -0 0 9.72 7.37 -3.19 0 -46.66 0 0 4.05 0 0 -40.14 0 -1.81 10.33 -0.07 0 -8.88 14.22 0 0 0 -8.73 0 -0 -6.77 9.64 3.11 0 -46.66 0 0 3.44 0 0 -40.14 0 1.55 4.76 0.05 0 -8.88 14.22 0 0 0 
0.01 98.94 3.61 -1.40 -4.99 1.16 -0.19 7.23 0 0.10 0.92 0.20 -0 16.55 -0 0.05 7.96 0.63 0 34.21 -0 0.01 0.57 0.01 0 6.29 0 -0.10 -5.81 -2.15 4.06 26.61 -1.12 -14.25 -4.99 1.14 14.17 0 0 -54.00 54.73 10.63 26.12 0 0 0 0 -48.20 27.71 0 0 -41.61 -27.79 35.07 2.29 -0.46 1.83 57.19 34.31 -81.43 5.29 0 0 0 0 0 3.01 0 0 0 0 0 9.37 0.29 2.59 24.22 -1.62 -3.34 4.34 0 0 0 0 0 2.16 0 0 0 0 0 9.47 0.83 0.29 16.96 14.27 7.03 4.77 0 0 0 0 0 2.87 0 0 -0 0 0 8.65 1.01 -1.70 23.79 3.43 14.82 4.54 0 0 0 0 0 2.50 0 0 0 0 0 7.69 0.66 -3.90 21.17 -7.01 16.30 3.21 0 0 0 0 0 1.92 0 0 0 0 0 -4.06 26.61 -1.12 16.87 -5.03 -0.89 -14.17 0 0 58.24 16.01 -3.30 -26.12 0 0 0 0 20.21 -27.71 0 0 22.50 -1.35 -33.58 -2.29 -0.46 1.83 -57.19 34.31 81.43 -5.29 0 0 0 0 0 -3.01 0 0 0 0 0 -9.37 0.29 2.59 -24.22 -1.62 3.34 -4.34 0 0 0 0 0 -2.16 0 0 -0 0 0 -9.47 0.83 0.29 -16.96 14.27 -7.03 -4.77 0 0 0 0 0 -2.87 0 0 0 0 0 -8.65 1.01 -1.70 -23.79 3.43 -14.82 -4.54 0 0 0 0 0 -2.50 0 0 -0 0 0 -7.69 0.66 -3.90 -21.17 -7.01 -16.30 -3.21 0 0 -0 0 0 -1.92 0 0 0 0 0 8.73 -0 0 9.75 7.33 -3.33 0 -46.66 0 0 4.09 0 0 -40.14 0 -1.79 16.02 -0.09 0 -8.88 14.22 0 0 0 -8.73 0 -0 -6.73 9.62 3.13 0 -46.66 0 0 3.43 0 0 -40.14 0 1.55 4.78 0.04 0 -8.88 14.22 0 0 0 
0 98.93 3.61 -1.43 -4.95 1.12 -0.19 7.23 0 0.14 0.92 0.19 -0 16.55 -0 0.08 7.98 0.63 0 34.21 -0 0.01 0.57 0 0 6.29 0 -0.16 -5.77 -2.10 4.06 26.61 -1.12 -14.23 -4.99 1.14 14.17 0 0 -53.99 54.64 10.56 26.12 0 0 0 0 -48.35 27.71 0 0 -41.48 -28.05 35.48 2.29 -0.46 1.83 57.19 34.31 -81.43 5.29 0 0 0 0 0 3.01 0 0 0 0 0 9.37 0.29 2.59 24.22 -1.62 -3.34 4.34 0 0 0 0 0 2.16 0 0 0 0 0 9.47 0.83 0.29 16.96 14.27 7.03 4.77 0 0 0 0 0 2.87 0 0 -0 0 0 8.65 1.01 -1.70 23.79 3.43 14.82 4.54 0 0 0 0 0 2.50 0 0 0 0 0 7.69 0.66 -3.90 21.17 -7.01 16.30 3.21 0 0 0 0 0 1.92 0 0 0 0 0 -4.06 26.61 -1.12 16.88 -5.03 -0.88 -14.17 0 0 58.46 15.55 -3.42 -26.12 0 0 0 0 19.89 -27.71 0 0 21.76 -0.73 -31.70 -2.29 -0.46 1.83 -57.19 34.31 81.43 -5.29 0 0 0 0 0 -3.01 0 0 0 0 0 -9.37 0.29 2.59 -24.22 -1.62 3.34 -4.34 0 0 0 0 0 -2.16 0 0 -0 0 0 -9.47 0.83 0.29 -16.96 14.27 -7.03 -4.77 0 0 0 0 0 -2.87 0 0 0 0 0 -8.65 1.01 -1.70 -23.79 3.43 -14.82 -4.54 0 0 0 0 0 -2.50 0 0 -0 0 0 -7.69 0.66 -3.90 -21.17 -7.01 -16.30 -3.21 0 0 -0 0 0 -1.92 0 0 0 0 0 8.73 -0 0 9.78 7.29 -3.45 0 -46.66 0 0 4.14 0 0 -40.14 0 -1.79 21.46 -0.11 0 -8.88 14.22 0 0 0 -8.73 0 -0 -6.68 9.58 3.16 0 -46.66 0 0 3.42 0 0 -40.14 0 1.54 4.81 0.04 0 -8.88 14.22 0 0 0 
